<svg enable-background="new 0 0 300 300" viewBox="0 0 300 300" xmlns="http://www.w3.org/2000/svg"><path d="m156.1 137.3c2.2 1 4.8 1 7 0 31.5-14.9 67-44.4 72.4-82.4.3-2.3-1.3-4.5-3.6-4.8s-4.5 1.3-4.8 3.6c-4.9 34.6-38 61.8-67.4 75.8-5.1-2.4-10.1-5.1-14.9-8 0-24.8 0-19.1 0-28.2 0-8.6-7-15.6-15.6-15.6-8.6 0-15.5 7-15.5 15.6v2.9c-11.4-12.6-22.3-30.2-22.3-51.8 0-19.1 16.8-34.3 36.2-31.7 17.1 2.3 23.2 15.8 24.1 16.7 5.9 6.2 13.2 4 16.4-1.2 16.2-26.1 51.1-17.8 58.3 7.2.7 2.3 3 3.6 5.3 2.9s3.6-3 2.9-5.3c-9.3-32.3-53.8-41.5-73.8-9.4 0 .1-.1.1-.1.2-.9 1-1.4 1-2.5-.1-13.4-22.7-44.8-26.8-63.6-8-7.6 7.7-11.8 17.9-11.8 28.7 0 22.7 10.7 44.8 30.8 64.1v83l-13.7-18c-12.3-17.2-35.4-2-27.9 14.6l22.3 50.9v.1c4.2 9.1 10.1 14.1 16.2 20.1 3.4 3.3 3.3 12 3.2 16.8-.1 5.3-.3 11.8 4 16.2 2.5 2.6 6.2 3.9 10.8 3.9h14.9c2.4 0 4.3-1.9 4.3-4.3s-1.9-4.3-4.3-4.3h-14.9c-2.2 0-3.8-.4-4.6-1.3-2.1-2.2-1.6-8.2-1.6-12.4 0-.1 0-.1 0-.2-.1-7.2-.6-15.4-5.8-20.5-6.2-6.2-10.7-9.8-14.5-17.6l-22.2-50.8v-.1c-3.3-7.3 6.8-14.9 13.1-6 0 0 .1.1.1.1l21.4 28.1c2.5 3.2 7.7 1.5 7.7-2.6 0-4 0-107.6 0-110.9 0-3.9 3.1-7 7-7 3.8 0 7 3.1 7 7v96.4c0 2.4 1.9 4.3 4.3 4.3s4.3-1.9 4.3-4.3v-15.4c.2-.8.2-.3.2-12.1 0-3.9 3.1-7 7-7s7 3.1 7 7v27.5c0 2.4 1.9 4.3 4.3 4.3s4.3-1.9 4.3-4.3v-24.4c0-3.9 3.1-7 7-7s7 3.1 7 7v24.4c0 2.4 1.9 4.3 4.3 4.3s4.3-1.9 4.3-4.3v-22.2c0-3.9 3.1-7 7-7s7 3.1 7 7v65.2c0 9-3.5 12.6-7.5 16.8-9.9 10.2-8.6 13.6-8.6 31.2 0 4.2-1.4 6.3-4.8 6.7h-19.6c-2.4 0-4.3 1.9-4.3 4.3s1.9 4.3 4.3 4.3h20.4c7.9-.9 12.6-6.6 12.6-15.3v-12.8c0-6 2.6-8.7 6.2-12.4 4.4-4.6 10-10.3 9.9-22.8v-65.2c0-13.3-15.7-20.5-25.8-11.7-5.4-7-15.5-8.1-22.2-2.6-4.6-6.5-13.1-8.3-19.9-4.8v-17c3.6 2.1 7.4 4.1 11.3 5.9z" fill="#7d504a"/></svg>