<svg enable-background="new 0 0 300 300" viewBox="0 0 300 300" xmlns="http://www.w3.org/2000/svg"><g fill="#7d504a"><path d="m287.1 259.1-20.8-20.8c-9.9-9.9-17.4-21.4-22.5-34.4-8.5-21.6-23.2-39.7-42.6-52.5l-3.6-2.3 7.8-5.8c10.8-7.9 19-18.7 24-31.1 3.4-8.5 5.1-17.4 5.1-26.5 0-3.6-.3-7.2-.8-10.7l8.5-8.5c2.1-2.1 2.1-5.6 0-7.7s-5.5-2.1-7.7 0l-8.9 8.9c-12.3-1.7-24.7-.2-36.3 4.4-12.4 4.9-23.2 13.2-31.1 24l-5.9 7.9-2.8-4.2c-12.7-19.4-30.9-34.1-52.5-42.6-13-5.1-24.5-12.7-34.4-22.5l-20.8-20.8c-1.4-1.4-3.4-1.9-5.3-1.4s-3.3 2-3.8 3.9l-2.5 10.6c-2.5 10.2-1.4 21 2.7 30.4l-2 5c-4.4 10.7-3.2 22.7 2.9 32.1l-.4 6.9c-.4 7.5 1.2 14.8 4.6 21.4v1.8c-.1 13 5.1 25.6 14.2 34.8 5.2 5.2 11.6 9.2 18.5 11.6l7.3 2.5-7 21.6c-1.3 4.1-4.6 7.2-8.7 8.2l-46.3 12c-2.1.5-3.6 2.2-4 4.4-.3 1.9-.5 3.9-.5 5.8 0 7.3 2.2 14.4 6.3 20.4-.1.5-.1 1.1 0 1.6l.3 2.3c1 8.6 4.9 16.6 11 22.7s14.1 10 22.7 11l2.3.3c.5.1 1.1 0 1.6 0 6 4.1 13.1 6.3 20.4 6.3 1.9 0 3.9-.2 5.8-.5 2.1-.3 3.8-1.9 4.4-4l12-46.3c1.1-4.1 4.1-7.4 8.2-8.7l21.3-6.8 2.3 6.6c2.4 6.9 6.4 13.3 11.6 18.5 9.1 9.1 21.6 14.2 34.4 14.2h.4 1.8c6.5 3.4 13.9 5 21.4 4.6l6.9-.4c9.5 6.1 21.4 7.3 32.1 2.9l5-2c9.5 4.1 20.2 5.1 30.4 2.7l10.5-2.5c1.9-.5 3.4-1.9 4-3.8.4-2.1-.1-4.1-1.5-5.5zm-212.9-98.4c-5.4-1.9-10.3-5-14.4-9-3.9-3.9-6.9-8.6-8.8-13.8 1.9.8 4.2.4 5.8-1.2 2.1-2.1 2.1-5.6 0-7.7l-4-4c-5.2-5.2-8.3-12.2-8.8-19.5 2 1 4.5.6 6.2-1.1 2.1-2.1 2.1-5.6 0-7.7l-4.2-4.2c-6.1-6.1-8.4-15.1-6-23.5.9 1.1 1.9 2.2 3 3.3l9.2 9.2c2.1 2.1 5.6 2.1 7.7 0s2.1-5.6 0-7.7l-9.2-9.2c-9.1-9.1-12.9-22.6-9.9-35.1l.3-1.1 14 14c10.9 10.9 23.7 19.3 38.1 25 19.5 7.7 35.9 20.9 47.4 38.4l3.5 5.3c-1 .4-2 .8-3 1.1-15.2 4.2-29.2 12.3-40.3 23.4-7.9 7.9-14.4 17.4-18.9 27.6zm51.7 52.2-22.8 7.3c-7.7 2.4-13.4 8.5-15.4 16.3l-11 42.6c-6.1.2-12-1.9-16.7-5.8l4.7-10.6c.3-.7.5-1.4.5-2.2 0-2.1-1.2-4.1-3.2-5-2.7-1.2-5.9 0-7.1 2.8l-5.9 13.5c-4.5-1.3-8.7-3.7-12-7.1-3.3-3.3-5.8-7.5-7.1-12l13.5-5.9c2-.9 3.2-2.9 3.2-5 0-.7-.1-1.5-.5-2.2-1.2-2.7-4.4-4-7.1-2.8l-10.6 4.7c-3.7-4.5-5.8-10.2-5.8-16.1 0-.2 0-.4 0-.7l42.6-11c7.8-2 13.9-7.8 16.3-15.4l7.3-22.8c3.9-12.1 10.7-23.3 19.7-32.3 9.8-9.8 22.1-17 35.5-20.6 4-1.1 7.7-3 10.9-5.5.1-.1.2-.2.3-.3 2-1.6 3.8-3.5 5.4-5.6l6.4-8.7c13.2-17.8 34.5-26.9 56.2-24.2.3 2.5.5 5.1.5 7.6 0 19.1-8.9 37.1-24.7 48.7l-8.7 6.4c-5.5 4.1-9.6 10-11.4 16.7-3.7 13.4-10.8 25.7-20.6 35.5-9.1 9-20.3 15.8-32.4 19.7zm145.6 47.3c-12.5 3-26-.8-35.1-9.9l-9.2-9.2c-2.1-2.1-5.6-2.1-7.7 0s-2.1 5.6 0 7.7l9.2 9.2c1 1 2.1 2 3.3 3-8.3 2.4-17.4.1-23.6-6.1l-4.2-4.2c-1.1-1.1-2.4-1.6-3.8-1.6s-2.8.5-3.8 1.6c-1.7 1.7-2 4.2-1.1 6.2-7.3-.4-14.3-3.5-19.5-8.8l-4-4c-2.1-2.1-5.6-2.1-7.7 0-1.6 1.6-2 3.9-1.2 5.8-5.1-1.9-9.9-4.9-13.8-8.8-4-4-7.1-9-9-14.4l-2.4-6.8c10.4-4.5 19.9-11 28-19 11.2-11.2 19.3-25.1 23.4-40.3.3-1.1.7-2.1 1.2-3.2l4.7 3.1c17.5 11.5 30.8 27.9 38.4 47.4 5.6 14.4 14 27.2 25 38.1l14 14z"/><path d="m164.4 159.1c0-2.4-1.6-4.6-4-5.2-2.9-.8-5.9.9-6.7 3.8-1.9 7.1-5.7 13.5-10.8 18.7-4.7 4.7-10.6 8.3-17 10.4-2.3.7-3.8 2.9-3.8 5.2 0 .5.1 1.1.3 1.7.7 2.3 2.9 3.8 5.2 3.8.5 0 1.1-.1 1.6-.3 8-2.6 15.4-7.1 21.4-13 6.5-6.5 11.2-14.6 13.6-23.5.1-.6.2-1.1.2-1.6z"/><path d="m164 144.9c3 0 5.4-2.4 5.4-5.4v-.1c0-3-2.4-5.4-5.4-5.4s-5.4 2.4-5.4 5.4v.1c0 3 2.4 5.4 5.4 5.4z"/></g></svg>