<svg enable-background="new 0 0 300 300" viewBox="0 0 300 300" xmlns="http://www.w3.org/2000/svg"><g fill="#7d504a"><path d="m282.7 119.7-30.4-112c-.3-1.3-1.2-2.4-2.3-3-1.2-.7-2.5-.8-3.8-.5l-94.2 25.6-2.7-9.8c-.7-2.7-3.5-4.2-6.1-3.5l-27.2 7.3c-1.3.3-2.4 1.2-3 2.3-.7 1.2-.8 2.5-.5 3.8l2.7 9.8-94.3 25.7c-2.7.7-4.2 3.5-3.5 6.1l30.4 112c.3 1.3 1.2 2.4 2.3 3 .8.4 1.6.7 2.5.7.4 0 .9-.1 1.3-.2l94.2-25.6 36 132.5c.6 2.2 2.6 3.7 4.8 3.7.4 0 .9-.1 1.3-.2l27.1-7.3c1.3-.3 2.4-1.2 3-2.3.7-1.2.8-2.5.5-3.8l-36-132.5 94.3-25.6c2.7-.8 4.3-3.5 3.6-6.2zm-141.8-92.3 1.4 5-17.4 4.7-1.4-5zm69 254.3-17.4 4.7-34.6-127.7 17.4-4.7zm-153.8-105.7-27.7-102.3 215.6-58.5 27.8 102.3z"/><path d="m156.8 106.8-6.8-25.1c-2.9-10.6-13.9-16.9-24.5-14-5.1 1.4-9.4 4.7-12.1 9.3-2.6 4.6-3.3 10-1.9 15.1l6.8 25.1c1.4 5.1 4.7 9.4 9.3 12.1 3.1 1.8 6.5 2.6 9.9 2.6 1.8 0 3.5-.2 5.3-.7 5.1-1.4 9.4-4.7 12.1-9.3 2.6-4.6 3.3-10 1.9-15.1zm-10.6 10.2c-1.3 2.3-3.5 4-6 4.7-2.6.7-5.2.4-7.6-1-2.3-1.3-4-3.5-4.7-6l-6.8-25.1c-.7-2.6-.4-5.2 1-7.6 1.3-2.3 3.5-4 6-4.7.9-.2 1.7-.3 2.6-.3 4.4 0 8.4 2.9 9.6 7.3l6.8 25.1c.8 2.6.4 5.3-.9 7.6z"/><path d="m236.5 100.7c-.7-2.7-3.5-4.2-6.1-3.5l-19.5 5.3-4.7-17.3 9.6-2.6c2.7-.7 4.2-3.5 3.5-6.1-.7-2.7-3.5-4.2-6.1-3.5l-9.6 2.6-4.7-17.3 19.5-5.3c2.7-.7 4.2-3.5 3.5-6.1s-3.5-4.2-6.1-3.5l-24.3 6.6c-1.3.3-2.4 1.2-3 2.3-.7 1.2-.8 2.5-.5 3.8l7.3 27 7.3 27c.3 1.3 1.2 2.4 2.3 3 .8.4 1.6.7 2.5.7.4 0 .9-.1 1.3-.2l24.3-6.6c2.7-.9 4.3-3.7 3.5-6.3z"/><path d="m100.5 74.7h-.1c-2.7 0-4.9 2.2-5 4.9l-1 41.5-21.8-35.4c-1.5-2.3-4.5-3.1-6.9-1.6-2.3 1.5-3.1 4.5-1.6 6.9l30.7 49.6c.9 1.5 2.6 2.4 4.3 2.4.4 0 .9-.1 1.3-.2 2.1-.6 3.6-2.5 3.7-4.7l1.4-58.3c0-2.8-2.2-5.1-5-5.1z"/><path d="m170.1 65.9 9.9-2.7c2.7-.7 4.2-3.5 3.5-6.1-.7-2.7-3.5-4.2-6.1-3.5l-29.4 8c-2.7.7-4.2 3.5-3.5 6.1.6 2.2 2.6 3.7 4.8 3.7.4 0 .9-.1 1.3-.2l9.9-2.7 13.3 49.1c.6 2.2 2.6 3.7 4.8 3.7.4 0 .9-.1 1.3-.2 2.7-.7 4.2-3.5 3.5-6.1z"/></g></svg>